<svg viewBox="0 0 457 929" xmlns="http://www.w3.org/2000/svg"><path d="M390,0 L63,0 C28.2061,0 0,28.2061 0,63 L0,866 C0,900.794 28.2061,929 63,929 L390,929 C424.794,929 453,900.794 453,866 L453,474 L454,474 C455.657,474 457,472.657 457,471 L457,359 C457,357.343 455.657,356 454,356 L453,356 L453,283 L454,283 C455.657,283 457,281.657 457,280 L457,227 C457,225.343 455.657,224 454,224 L453,224 L453,63 C453,28.2061 424.794,0 390,0 L390,0 Z M8,63 C8,32.6243 32.6243,8 63,8 L390,8 C420.376,8 445,32.6243 445,63 L445,866 C445,896.376 420.376,921 390,921 L63,921 C32.6243,921 8,896.376 8,866 L8,63 L8,63 Z" fill="#d8d8d8"/><path d="M452.93,869 C452.737,873.116 452.149,877.128 451.203,881 L1.79663,881 C0.85083,877.128 0.262939,873.116 0.0700684,869 L330,869 L330,89 L0,89 L0,77 L330,77 L330,0 L342,0 L342,77 L453,77 L453,89 L342,89 L342,869 L452.93,869 Z" fill="#c9c2bf"/><path d="M63,8 L390,8 C420.376,8 445,32.6243 445,63 L445,866 C445,896.376 420.376,921 390,921 L63,921 C32.6243,921 8,896.376 8,866 L8,63 C8,32.6243 32.6243,8 63,8 Z" fill="#ebecef"/><path d="M211,76.5 C211,72.91015 213.91015,70 217.5,70 L236.5,70 C240.0899,70 243,72.91015 243,76.5 C243,80.0899 240.0899,83 236.5,83 L217.5,83 C213.91015,83 211,80.0899 211,76.5 Z M20,92 L433,92 L433,825 L20,825 L20,92 Z" fill="#000"/><polygon fill="#fff" points="21 93 432 93 432 824 21 824"/><path d="M181,40 C181,37.23858 183.23858,35 186,35 L268,35 C270.7614,35 273,37.23858 273,40 C273,42.76142 270.7614,45 268,45 L186,45 C183.23858,45 181,42.76142 181,40 L181,40 Z" fill="#d8d8d8"/><path d="M87,39.5 C87,44.7467 82.7467,49 77.5,49 C72.25329,49 68,44.7467 68,39.5 C68,34.25329 72.25329,30 77.5,30 C82.7467,30 87,34.25329 87,39.5 L87,39.5 Z" fill="#424242"/><path d="M83,39.5 C83,42.53757 80.53757,45 77.5,45 C74.46243,45 72,42.53757 72,39.5 C72,36.46243 74.46243,34 77.5,34 C80.53757,34 83,36.46243 83,39.5 L83,39.5 Z" fill="#212121"/></svg>